<svg xmlns="http://www.w3.org/2000/svg" viewBox="0 0 1650 990"><title>Union Jack (1707-1800)</title><rect width="1650" height="990" fill="#012169"/><polygon points="0 0 192.42 0 825 379.55 1457.58 0 1650 0 1650 115.45 1017.42 495 1650 874.55 1650 990 1457.58 990 825 610.45 192.42 990 0 990 0 874.55 632.58 495 0 115.45 0 0" fill="#fff"/><polyline points="660 0 990 0 990 330 1650 330 1650 660 990 660 990 990 660 990 660 660 0 660 0 330 660 330" fill="#fff"/><polygon points="726 0 924 0 924 396 1650 396 1650 594 924 594 924 990 726 990 726 594 0 594 0 396 726 396 726 0" fill="#c8102e"/></svg>