<svg width="16" height="16" viewBox="0 0 16 16" fill="none" xmlns="http://www.w3.org/2000/svg">
<path d="M14 3.98665C11.78 3.76665 9.54667 3.65331 7.32 3.65331C6 3.65331 4.68 3.71998 3.36 3.85331L2 3.98665M5.66667 3.31331L5.81333 2.43998C5.92 1.80665 6 1.33331 7.12667 1.33331H8.87333C10 1.33331 10.0867 1.83331 10.1867 2.44665L10.3333 3.31331M12.5667 6.09331L12.1333 12.8066C12.06 13.8533 12 14.6666 10.14 14.6666H5.86C4 14.6666 3.94 13.8533 3.86667 12.8066L3.43333 6.09331M6.88667 11H9.10667M6.33333 8.33331H9.66667" stroke="#EF9292" stroke-width="1.5" stroke-linecap="round" stroke-linejoin="round"/>
</svg>
